<svg width="192" height="192" viewBox="0 0 192 192" fill="none" xmlns="http://www.w3.org/2000/svg">
<circle cx="96" cy="96" r="96" fill="#2F80ED"/>
<path d="M42.536 140.248C45.8 139.864 48.456 137.56 50.504 133.336C52.616 129.048 54.632 121.976 56.552 112.12L65.864 63.64H86.696L77.384 112.12C75.016 124.664 71.88 133.4 67.976 138.328C65.928 140.888 63.592 142.68 60.968 143.704C58.408 144.728 55.72 145.24 52.904 145.24C50.088 145.24 47.784 144.728 45.992 143.704C44.136 142.68 42.984 141.528 42.536 140.248ZM103.539 98.776C101.683 81.432 97.4908 70.904 90.9628 67.192C92.3068 65.528 94.0668 64.248 96.2428 63.352C98.4188 62.392 100.819 61.912 103.443 61.912C106.067 61.912 108.371 62.392 110.355 63.352C112.339 64.248 113.971 65.688 115.251 67.672C117.683 71.448 118.899 77.848 118.899 86.872V93.784C122.739 82.52 126.579 74.456 130.419 69.592C134.323 64.6 138.707 62.104 143.571 62.104C145.491 62.104 147.091 62.616 148.371 63.64C149.651 64.6 150.611 65.816 151.251 67.288C146.323 69.464 141.491 73.688 136.755 79.96C132.019 86.232 128.115 93.752 125.043 102.52L119.379 127H97.9708L103.539 98.776Z" fill="#F2F2F2"/>
</svg>
